<svg width="512" height="512" viewBox="0 0 512 512" fill="none" xmlns="http://www.w3.org/2000/svg">
  <defs>
    <linearGradient id="cartGrad" x1="96" y1="90" x2="426" y2="386" gradientUnits="userSpaceOnUse">
      <stop offset="0" stop-color="#4F46E5"/>
      <stop offset="0.52" stop-color="#7C3AED"/>
      <stop offset="1" stop-color="#EC4899"/>
    </linearGradient>
    <linearGradient id="shieldGrad" x1="259" y1="178" x2="348" y2="303" gradientUnits="userSpaceOnUse">
      <stop offset="0" stop-color="#EC4899"/>
      <stop offset="1" stop-color="#7C3AED"/>
    </linearGradient>
    <radialGradient id="wheelGradLeft" cx="0" cy="0" r="1" gradientUnits="userSpaceOnUse" gradientTransform="translate(216 368) rotate(45) scale(44)">
      <stop offset="0" stop-color="#A78BFA"/>
      <stop offset="0.55" stop-color="#7C3AED"/>
      <stop offset="1" stop-color="#4F46E5"/>
    </radialGradient>
    <radialGradient id="wheelGradRight" cx="0" cy="0" r="1" gradientUnits="userSpaceOnUse" gradientTransform="translate(354 368) rotate(45) scale(44)">
      <stop offset="0" stop-color="#F9A8D4"/>
      <stop offset="0.55" stop-color="#EC4899"/>
      <stop offset="1" stop-color="#7C3AED"/>
    </radialGradient>
  </defs>
  <path d="M64 164H111" stroke="#4F46E5" stroke-width="20" stroke-linecap="round"/>
  <path d="M42 222H104" stroke="#7C3AED" stroke-width="18" stroke-linecap="round"/>
  <path d="M76 282H127" stroke="#EC4899" stroke-width="16" stroke-linecap="round"/>
  <path d="M116 113H165L202 313H361C379 313 395 302 402 285L442 183C449 163 435 142 414 142H198" stroke="url(#cartGrad)" stroke-width="30" stroke-linecap="round" stroke-linejoin="round"/>
  <path d="M221 204H403" stroke="url(#cartGrad)" stroke-width="24" stroke-linecap="round"/>
  <circle cx="225" cy="378" r="28" fill="url(#wheelGradLeft)" stroke="#F8FAFC" stroke-width="4"/>
  <circle cx="225" cy="378" r="9" fill="#FFFFFF" fill-opacity="0.22"/>
  <circle cx="363" cy="378" r="28" fill="url(#wheelGradRight)" stroke="#F8FAFC" stroke-width="4"/>
  <circle cx="363" cy="378" r="9" fill="#FFFFFF" fill-opacity="0.22"/>
  <path d="M301 172L359 198V238C359 285 329 315 301 328C273 315 243 285 243 238V198L301 172Z" fill="url(#shieldGrad)" stroke="#F8FAFC" stroke-width="12" stroke-linejoin="round"/>
  <path d="M276 240L295 258L330 220" stroke="#F8FAFC" stroke-width="16" stroke-linecap="round" stroke-linejoin="round"/>
</svg>
